# xmcd
#
# Track frame offsets:
#	150
#	17005
#	30849
#	46728
#	66657
#	80680
#	98161
#	113678
#	130976
#	147595
#	164727
#	177952
#	191762
#	214292
#
# Disc length: 4440 seconds
#
# Revision: 1
# Processed by: cddbd v1.5.2PL0 Copyright (c) Steve Scherf et al.
# Submitted via: audiograbber 1.83.01
#
DISCID=cb11560e
DTITLE=Guus Meeuwis - Wijzer
DYEAR=2005
DGENRE=Folklore
TTITLE0=Te lang
TTITLE1=Thuis
TTITLE2=Niemand
TTITLE3=De weg
TTITLE4=Mag ik dansen
TTITLE5=Bloemen
TTITLE6=Het ijs is nog te dun
TTITLE7=Jouw hand
TTITLE8=Wensen
TTITLE9=Als je ooit
TTITLE10=Terug naar toen
TTITLE11=Liefde is een werkwoord
TTITLE12=Als de liefde
TTITLE13=Gegevens track
EXTD=
EXTT0=
EXTT1=
EXTT2=
EXTT3=
EXTT4=
EXTT5=
EXTT6=
EXTT7=
EXTT8=
EXTT9=
EXTT10=
EXTT11=
EXTT12=
EXTT13=
PLAYORDER=
